PathFileType	4	(X/Y/Z)	SUBJ24_2_walk_RCNL2025.trc
DataRate	CameraRate	NumFrames	NumMarkers	Units	OrigDataRate	OrigDataStartFrame	OrigNumFrames
100	100	8	25	mm	100	300	399
Frame#	Time	R_Shoulder			L_Shoulder			C7			J_Notch			R_Elbow			L_Elbow			R_Wrist			L_Wrist			R_Asis			L_Asis			Sacral			Thoracic			Sternum			R_Thigh_Lateral			R_Knee_Lateral			R_Shank_Lateral			R_Ankle_Lateral			R_Heel			R_Toe			L_Thigh_Lateral			L_Knee_Lateral			L_Shank_Lateral			L_Ankle_Lateral			L_Heel			L_Toe		
		X1	Y1	Z1	X2	Y2	Z2	X3	Y3	Z3	X4	Y4	Z4	X5	Y5	Z5	X6	Y6	Z6	X7	Y7	Z7	X8	Y8	Z8	X9	Y9	Z9	X10	Y10	Z10	X11	Y11	Z11	X12	Y12	Z12	X13	Y13	Z13	X14	Y14	Z14	X15	Y15	Z15	X16	Y16	Z16	X17	Y17	Z17	X18	Y18	Z18	X19	Y19	Z19	X20	Y20	Z20	X21	Y21	Z21	X22	Y22	Z22	X23	Y23	Z23	X24	Y24	Z24	X25	Y25	Z25
300	2.99000000	170.296738	1287.222534	369.785889	154.523605	1307.753296	25.702206	75.519852	1360.522217	202.229065	211.474686	1271.818359	193.289246	111.121841	1003.880737	451.747284	161.655762	1024.361572	-80.472382	147.463585	769.507660	439.294235	334.894623	862.950745	-76.839073	200.360901	867.907471	357.131592	171.577545	845.288330	30.350273	11.204086	902.352173	208.036118	11.956154	1094.910645	191.117096	285.167023	1052.763550	183.847412	204.036133	552.644226	389.385620	299.670929	443.440155	304.664368	310.650543	299.182007	353.850616	308.477142	65.881187	284.722504	259.792084	39.022099	227.031784	434.960236	44.090408	274.176758	84.251686	544.668762	7.140706	76.517403	415.282196	58.126312	-35.423439	306.111664	8.017512	-195.413177	144.569550	72.945923	-244.727463	154.778992	130.856644	-122.477928	50.392376	101.368591
301	3.00000000	183.045578	1289.100586	371.547028	167.760254	1309.873169	27.691296	88.175682	1362.241577	204.050507	224.273376	1273.696777	195.355820	126.687080	1005.224731	453.370270	170.915833	1025.810303	-78.048752	165.941612	771.383606	440.505524	338.963150	859.008575	-75.803623	211.805801	870.612915	359.399261	185.976227	846.191772	33.435215	23.593977	904.104492	208.894409	24.606977	1096.745483	192.313446	298.089691	1054.669189	186.121704	215.141083	555.166809	392.016663	307.453979	443.785889	306.034363	315.495239	299.081757	354.848999	309.086395	65.885757	284.573395	259.917328	39.365074	227.087494	435.313324	43.704826	274.129639	103.885216	544.125122	7.986538	99.216957	414.759399	58.028557	-15.634221	310.408173	8.007769	-180.650711	154.442535	73.215996	-227.974655	167.080139	132.021591	-114.241089	53.764149	100.435493
302	3.01000000	195.714691	1291.134033	373.183685	180.727173	1312.120728	29.578289	100.677444	1364.057983	205.798599	236.901535	1275.653809	197.267471	142.373596	1006.758728	455.031921	180.059189	1027.395142	-75.617233	184.785110	773.525085	441.639023	342.467728	855.056763	-74.749252	223.072021	873.185669	361.625122	200.010910	847.400513	36.389568	35.808617	905.971741	209.895615	37.126404	1098.668091	193.559402	310.702606	1056.617065	188.242554	224.923828	557.497253	394.373901	314.071564	443.847748	307.525574	319.016907	298.792084	355.915527	309.453613	65.854813	284.402618	260.115906	39.542305	227.041946	435.508362	43.554607	274.130493	123.857735	543.906433	8.803822	122.604317	414.625519	57.962215	5.207130	315.022034	8.199696	-164.228592	164.396088	73.968140	-209.509491	178.759583	133.798874	-103.644272	58.328487	98.980408
303	3.02000000	208.317780	1293.244629	374.687988	193.384323	1314.407715	31.322123	113.029358	1365.946899	207.464279	249.345764	1277.650757	199.004303	158.160080	1008.422668	456.728424	189.072281	1029.037354	-73.196739	203.950653	775.874908	442.683319	345.449097	851.127075	-73.674292	234.227814	875.566528	363.781006	213.566437	848.893188	39.098461	47.853039	907.937195	211.084702	49.511692	1100.638428	194.888535	323.017487	1058.563110	190.176041	233.191498	559.342285	396.287994	319.694427	443.684937	309.063507	321.652344	298.380035	356.972412	309.643433	65.787598	284.218018	260.375275	39.600628	226.922546	435.603241	43.527580	274.158051	144.010590	544.118469	9.616054	146.482803	415.019043	57.951645	26.940865	319.900848	8.653169	-146.211548	174.151093	75.204750	-189.509476	189.427933	136.188705	-90.386002	63.936852	97.059837
304	3.03000000	220.871429	1295.372437	376.057190	205.715561	1316.664185	32.891720	125.245636	1367.897461	209.040161	261.604034	1279.662964	200.559952	174.035080	1010.169617	458.445618	197.935165	1030.678589	-70.803009	223.394432	778.389832	443.630829	347.938477	847.266632	-72.579039	245.333374	877.722229	365.841949	226.583359	850.658325	41.477470	59.736965	909.984497	212.475388	61.746700	1102.640137	196.329224	335.068207	1060.487183	191.899704	240.150558	560.539307	397.714386	324.587921	443.382904	310.550385	323.819519	297.937195	357.956604	309.715698	65.697067	284.034180	260.651367	39.592537	226.771439	435.642639	43.549095	274.199493	164.230698	544.842590	10.432079	170.690369	416.057953	58.010948	49.397221	324.987152	9.404166	-126.646141	183.373276	76.868286	-168.119370	198.765549	139.109100	-74.329514	70.226562	94.867714
305	3.04000000	233.385651	1297.482666	377.295837	217.726166	1318.841919	34.273312	137.342957	1369.903687	210.522797	273.682465	1281.674927	201.944153	189.996597	1011.969543	460.162292	206.627609	1032.284424	-68.448341	243.073509	781.043274	444.477066	349.961655	843.535950	-71.463570	256.432861	879.641052	367.789581	239.067810	852.687561	43.484394	71.475044	912.095825	214.052917	73.819771	1104.666382	197.906006	346.900085	1062.386475	193.405197	246.268921	561.158325	398.741821	329.030365	443.025909	311.887299	325.853424	297.528168	358.820282	309.722656	65.600388	283.868408	260.900848	39.561729	226.627502	435.657776	43.574795	274.246704	184.461380	546.113342	11.245790	195.099075	417.806427	58.144558	72.404144	330.206604	10.448903	-105.568970	191.703232	78.848000	-145.475449	206.564453	142.375549	-55.510715	76.703133	92.721817
306	3.05000000	245.857407	1299.565552	378.417419	229.435577	1320.911865	35.473621	149.333633	1371.956055	211.913559	285.592621	1283.675537	203.180923	206.048203	1013.808716	461.855438	215.133469	1033.841187	-66.142647	262.946404	783.825256	445.221039	351.548462	840.002441	-70.328344	267.548309	881.326599	369.611542	251.073975	854.966064	45.118546	83.084045	914.253357	215.780899	85.737930	1106.707764	199.632477	358.559784	1064.268555	194.698273	252.075272	561.481262	399.544800	333.238922	442.674469	313.001648	327.973602	297.169159	359.530853	309.705658	65.511780	283.735077	261.099396	39.537472	226.516495	435.667511	43.582630	274.293640	204.692078	547.911255	12.045734	219.603256	420.256927	58.351418	95.812523	335.456818	11.736914	-83.032593	198.806076	81.006699	-121.723366	212.741211	145.742371	-34.092354	82.855797	90.995621
307	3.06000000	258.269501	1301.627808	379.443604	240.870438	1322.861816	36.517559	161.223038	1374.036621	213.219223	297.351135	1285.655151	204.302979	222.193909	1015.687500	463.504852	223.440994	1035.348389	-63.894810	282.973831	786.738800	445.864380	352.740982	836.729095	-69.174910	278.677063	882.792297	371.298950	262.687531	857.465637	46.414005	94.578430	916.440063	217.606384	97.527069	1108.745972	201.498367	370.088867	1066.144165	195.798065	258.006531	561.866699	400.306824	337.326416	442.357330	313.867004	330.268402	296.845459	360.076691	309.692444	65.440155	283.642517	261.238953	39.537506	226.453171	435.680908	43.565384	274.335571	224.932114	550.175110	12.825392	244.105301	423.337982	58.630360	119.519707	340.607422	13.182418	-59.128475	204.419891	83.217323	-97.011467	217.307129	148.980530	-10.298961	88.252335	90.021454
